<?xml version="1.0" encoding="UTF-8"?>
<svg version="1.1" xmlns="http://www.w3.org/2000/svg" width="1024" height="1024">
<path d="M0 0 C0.80969238 0.25088379 1.61938477 0.50176758 2.45361328 0.76025391 C50.1445008 15.69066061 97.04861031 47.64957446 127 88 C127.48098145 88.63695801 127.96196289 89.27391602 128.45751953 89.93017578 C135.97217763 99.90790846 142.80978274 110.10527416 148.89306641 121.01660156 C149.92829125 122.8715126 150.98401887 124.7132598 152.04296875 126.5546875 C161.84733219 143.92422115 168.90293933 162.7572568 174 182 C174.19287598 182.70608398 174.38575195 183.41216797 174.58447266 184.13964844 C177.94818893 196.57982668 179.54678519 209.21432609 181 222 C181.08365814 222.67099228 181.16731628 223.34198456 181.25350952 224.03330994 C181.87795049 229.22691228 182.17165565 234.33733925 182.203125 239.56640625 C182.21013931 240.3543306 182.21715363 241.14225494 182.22438049 241.95405579 C182.24180756 244.49026269 182.24823559 247.02623536 182.25 249.5625 C182.25101212 250.86831024 182.25101212 250.86831024 182.25204468 252.20050049 C182.2346614 266.34724198 181.44688941 280.04439427 179 294 C178.8443457 294.96873047 178.68869141 295.93746094 178.52832031 296.93554688 C172.30188514 335.33811111 156.78525377 373.35987718 133.20898438 404.40576172 C131.98366584 406.02153919 130.78013614 407.65198894 129.578125 409.28515625 C124.72507548 415.806865 119.52971521 421.87727556 113.93408203 427.77563477 C111.72198487 430.10751393 109.78900059 432.31649912 108 435 C107.34 435 106.68 435 106 435 C106 435.66 106 436.32 106 437 C105.34 437 104.68 437 104 437 C104 437.66 104 438.32 104 439 C102.6015625 440.41015625 102.6015625 440.41015625 100.625 442.0625 C97.45515833 444.74937105 94.36589155 447.49398472 91.3125 450.3125 C42.39387183 494.19865205 -23.70290288 516.1534149 -89 514 C-90.25296875 513.97035156 -91.5059375 513.94070313 -92.796875 513.91015625 C-152.34977791 511.85432925 -206.24739912 487.51293435 -251.609375 449.9765625 C-253.06754943 448.77094769 -254.53428435 447.57547174 -256.015625 446.3984375 C-257.37934468 445.30873626 -258.69725369 444.16190887 -260 443 C-260 442.34 -260 441.68 -260 441 C-260.66 441 -261.32 441 -262 441 C-262 440.34 -262 439.68 -262 439 C-263.32 438.34 -264.64 437.68 -266 437 C-266 436.34 -266 435.68 -266 435 C-266.66 435 -267.32 435 -268 435 C-269.41015625 433.6015625 -269.41015625 433.6015625 -271.0625 431.625 C-273.70121101 428.50849769 -276.40315668 425.48684101 -279.1875 422.5 C-289.08356123 411.49315639 -297.35644902 399.3542505 -304.97167969 386.69384766 C-305.82626126 385.28618218 -306.71029341 383.89644658 -307.6015625 382.51171875 C-332.30069166 343.66923351 -342.49064945 295.74497644 -342.3125 250.25 C-342.31067719 249.28066528 -342.30885437 248.31133057 -342.30697632 247.31262207 C-342.26553603 234.21964989 -342.05870183 221.33857308 -339.48730469 208.45507812 C-338.95719513 205.78434583 -338.49858105 203.1056101 -338.0390625 200.421875 C-329.33395405 152.21081818 -306.15025846 107.84266524 -273 72 C-272.12472656 71.02160156 -271.24945313 70.04320312 -270.34765625 69.03515625 C-226.75609058 20.37677372 -161.62898772 -7.92756242 -96.96630859 -11.859375 C-63.92191419 -13.42592407 -31.55587285 -10.02692888 0 0 Z " fill="#456A4C" transform="translate(594,261)"/>
<path d="M0 0 C13.12870349 6.00342561 25.82279944 12.60019239 38.44970703 19.59277344 C42.1810843 21.6517107 45.93006601 23.67659083 49.6875 25.6875 C50.84636719 26.31011719 52.00523437 26.93273437 53.19921875 27.57421875 C62.02165769 32.06541849 71.74608382 30.38738287 80.90625 27.62109375 C85.15475498 26.07278296 89.04224905 23.91705492 93.01879883 21.78125 C103.22807548 16.30791184 111.2687166 12.73873063 123 15 C123.99 15.66 124.98 16.32 126 17 C119.3923338 22.63536697 112.14675422 27.15368937 104.7409668 31.64746094 C97.51982558 36.09281388 93.03197011 39.86300896 89.9375 48 C89.68564941 48.65572998 89.43379883 49.31145996 89.17431641 49.98706055 C87.18745389 55.25129405 85.5267597 60.59923268 83.9375 65.99609375 C83.04389866 68.85934137 82.01301665 71.60108441 80.875 74.375 C77.80916889 81.89473535 75.82123125 88.82078827 77 97 C79.11164999 101.81665618 82.25269509 104.76366628 87 107 C89.82593492 107.29204191 92.37116127 107.42911252 95.1875 107.375 C95.94417969 107.36484863 96.70085937 107.35469727 97.48046875 107.34423828 C107.36598068 107.07128643 115.3507803 104.45867967 123 98 C126.63084018 94.07646253 128.55003604 89.93311503 130.5625 85.0625 C131.43071529 83.00072932 132.30252042 80.94189474 133.19921875 78.89233398 C133.89893824 77.23882002 134.50658341 75.54695292 135.09765625 73.8515625 C138.03984056 69.44130675 142.22743451 67.67594902 146.875 65.3125 C148.66433961 64.37162056 150.45341037 63.43022962 152.2421875 62.48828125 C153.49660645 61.84366943 153.49660645 61.84366943 154.77636719 61.18603516 C157.15627456 59.9601036 157.15627456 59.9601036 159.8828125 58.10546875 C162 57 162 57 164.12109375 57.125 C166.29733034 58.13846569 167.45286886 59.22158401 169.0625 61 C172.82227576 64.93651735 176.93980086 68.27009892 181.17578125 71.6796875 C183.85793666 73.88328406 186.43626421 76.16043825 189 78.5 C192.39598682 81.59555196 195.86171531 84.55151207 199.4375 87.4375 C204.211403 91.29825137 208.73388428 95.37437075 213.25 99.53125 C215.93737634 101.94378104 218.68965444 104.2325621 221.5 106.5 C226.25595419 110.33719031 230.75504801 114.39385101 235.25 118.53125 C237.93737634 120.94378104 240.68965444 123.2325621 243.5 125.5 C247.28460334 128.55348679 250.92207537 131.70668301 254.5 135 C260.66600843 140.67131435 267.11894511 145.95339991 273.70703125 151.125 C276.99573311 153.8142281 278.71254422 155.97028172 279.3203125 160.26171875 C279.59973885 166.34389889 278.56709055 171.01757998 275 176 C270.22121208 180.54567631 266.03565659 181.50714178 259.59765625 181.38671875 C254.96719431 180.69737178 252.39011158 178.06833828 249 175 C247.96377745 174.11385576 246.92445767 173.23132618 245.8828125 172.3515625 C242.85328043 169.78652427 239.84756052 167.19513753 236.84667969 164.59667969 C233.90637311 162.05442625 230.95277494 159.52774802 228 157 C226.83326434 156.0000805 225.66659779 155.00008035 224.5 154 C223.63375 153.2575 223.63375 153.2575 222.75 152.5 C217.5 148 217.5 148 215.74780273 146.49804688 C214.58855231 145.50444992 213.4292108 144.51095922 212.26977539 143.51757812 C209.23886026 140.92050405 206.20984931 138.32125287 203.18359375 135.71875 C202.55646484 135.17992187 201.92933594 134.64109375 201.28320312 134.0859375 C200.08990341 133.06058367 198.89715662 132.03458586 197.70507812 131.0078125 C196.14206617 129.66543925 194.57203315 128.33178632 193 127 C192.08992187 126.22140625 191.17984375 125.4428125 190.2421875 124.640625 C188.14751539 122.72131169 188.14751539 122.72131169 185.6875 123.25 C185.130625 123.4975 184.57375 123.745 184 124 C184.08901589 126.67047657 184.52469221 128.46134143 186.31152344 130.48632812 C188.12237855 132.13409054 189.97959858 133.7001995 191.875 135.25 C192.55393311 135.82137695 193.23286621 136.39275391 193.93237305 136.98144531 C195.94377929 138.66832414 197.96847973 140.33742721 200 142 C201.01964844 142.8353125 202.03929687 143.670625 203.08984375 144.53125 C204.87654832 145.98727324 206.66553959 147.44049586 208.45703125 148.890625 C211.89005264 151.73829251 215.16858704 154.7423733 218.46484375 157.74609375 C221.98645793 160.87702038 225.64903904 163.82185598 229.30859375 166.7890625 C240.48522167 175.97044335 240.48522167 175.97044335 242 179 C242.68169543 186.36454575 242.74934792 192.12580652 238 198 C233.66616688 201.27680065 229.32480257 201.43240884 224.07421875 201.69140625 C216.22183998 199.92536935 209.65752627 193.26032212 203.625 188.1875 C202.12900027 186.94259534 200.63290667 185.69780348 199.13671875 184.453125 C198.42306152 183.85693359 197.7094043 183.26074219 196.97412109 182.64648438 C194.47430566 180.56155298 191.95836857 178.49690851 189.4375 176.4375 C188.59703125 175.75042969 187.7565625 175.06335938 186.890625 174.35546875 C182.48433909 170.76494117 178.07149961 167.18246934 173.65600586 163.60327148 C173.01026611 163.07934814 172.36452637 162.5554248 171.69921875 162.015625 C171.0753125 161.51119873 170.45140625 161.00677246 169.80859375 160.48706055 C168.61476722 159.50547343 167.43455016 158.50706623 166.26953125 157.49145508 C164.88271223 156.284542 163.44524141 155.13630254 162 154 C159.67828408 154.03375833 159.67828408 154.03375833 158 155 C158.19914558 158.77689901 158.97370122 159.97312365 161.66796875 162.7265625 C162.83027753 163.70575632 164.00428165 164.67117791 165.1875 165.625 C165.81317871 166.14497559 166.43885742 166.66495117 167.08349609 167.20068359 C171.9447196 171.21541934 176.89805664 175.11775407 181.87646484 178.98583984 C186.76034937 182.78228087 191.50345182 186.72633642 196.234375 190.7109375 C199.46831306 193.38761505 202.78791719 195.93033714 206.16015625 198.4296875 C209.59854081 201.36435967 210.9062713 203.19661111 211.4375 207.75 C211.23588776 212.43967594 209.77745597 216.22439579 207 220 C203.03520289 223.0207978 198.74954782 223.88518414 193.828125 223.73046875 C188.20358771 222.27772224 183.9896211 218.10900855 179.66015625 214.40234375 C177.07153235 212.21571792 174.38242667 210.17954805 171.6875 208.125 C170.6197629 207.3034228 169.5520553 206.48180727 168.484375 205.66015625 C162.56505354 201.1276374 156.5958173 196.65934777 150.61181641 192.21264648 C149.28057825 191.21109242 147.97451776 190.17616721 146.67578125 189.1328125 C145.02026165 187.74159269 145.02026165 187.74159269 142.75 188.3125 C142.1725 188.539375 141.595 188.76625 141 189 C141.25465899 192.45002303 141.74031942 193.75058171 144.2734375 196.18359375 C145.29695312 196.92738281 146.32046875 197.67117188 147.375 198.4375 C147.93501709 198.8514502 148.49503418 199.26540039 149.07202148 199.69189453 C151.03854901 201.14130303 153.01925491 202.57008897 155 204 C157.50693671 205.83084039 160.0105252 207.6661363 162.51220703 209.50415039 C164.18799749 210.7334805 165.86726881 211.95808225 167.55029297 213.17749023 C177.56821033 220.4831285 177.56821033 220.4831285 178.6015625 224.11328125 C178.66134367 229.72274782 177.44209123 232.59510269 173.60546875 236.6875 C170.15225656 239.51056398 166.01856239 239.51833116 161.7421875 239.46875 C157.54533856 238.75133993 154.89794905 236.66145251 151.60546875 234.0546875 C148.9933853 231.91941595 148.9933853 231.91941595 145.92578125 230.0703125 C138.34002138 225.23329788 138.34002138 225.23329788 137.30859375 221.4921875 C137.31215415 219.22065249 137.493401 217.21061381 138 215 C137.34 215 136.68 215 136 215 C135.67 216.32 135.34 217.64 135 219 C133.68 219 132.36 219 131 219 C130.77957031 219.69996094 130.55914062 220.39992188 130.33203125 221.12109375 C128.68585774 224.67895263 126.3517841 227.24961041 123.6875 230.0625 C122.9769043 230.8369043 122.9769043 230.8369043 122.25195312 231.62695312 C114.94859961 239.46981565 114.94859961 239.46981565 110.7890625 240.6015625 C106.3295301 240.64986068 103.58822067 240.16104676 100.0625 237.3125 C96.43489443 233.71848337 95.37920799 230.75814612 94.3125 225.8125 C95.41317298 219.70876803 99.73690055 216.29787188 104 212 C105.16156326 210.80677988 106.309982 209.6004414 107.4375 208.375 C108.11619141 207.67503906 108.11619141 207.67503906 108.80859375 206.9609375 C110.69683667 203.85307539 111.21557251 200.53904494 112 197 C111.11957031 197.90363281 110.23914063 198.80726563 109.33203125 199.73828125 C108.15912494 200.92995407 106.98593272 202.12134553 105.8125 203.3125 C105.23435547 203.90740234 104.65621094 204.50230469 104.06054688 205.11523438 C100.89340354 208.31816464 97.95201144 210.77568206 94 213 C92.63755204 214.64295195 91.30135125 216.30824337 90 218 C85.33583607 221.10944262 80.45809575 220.7311928 75 220 C71.9375 217.75 71.9375 217.75 70 215 C69.21496094 214.071875 69.21496094 214.071875 68.4140625 213.125 C65.88035686 209.31744236 66.19815205 205.38696977 67 201 C69.80001549 195.35894316 74.75319043 191.1280658 79.36328125 186.95703125 C81.29177266 184.65112625 81.64841281 182.95027514 82 180 C81.34 180 80.68 180 80 180 C79.71125 180.598125 79.4225 181.19625 79.125 181.8125 C78 184 78 184 76 187 C75.34 186.67 74.68 186.34 74 186 C72.5530883 185.88369173 72.5530883 185.88369173 70.56640625 188.37109375 C69.05173003 189.90997252 67.54451016 191.45595053 66.03710938 193.00195312 C62.10481335 196.99691522 60.31875135 198.16795591 54.75 198.3125 C49.66062631 198.25927779 46.87618126 197.49801724 43 194 C38.6165209 189.14263127 37.73081648 185.51430463 37.76171875 179.1484375 C38.06642171 176.40111575 39.2366219 175.07005255 41 173 C40.70609375 172.08927734 40.70609375 172.08927734 40.40625 171.16015625 C40 169 40 169 41.21484375 166.859375 C41.78332031 166.16328125 42.35179687 165.4671875 42.9375 164.75 C43.50339844 164.04359375 44.06929688 163.3371875 44.65234375 162.609375 C45.09707031 162.07828125 45.54179687 161.5471875 46 161 C45.154375 161.7425 44.30875 162.485 43.4375 163.25 C39.03781854 166.86659998 34.84064021 170.17392178 28.9375 170.5 C23.63269991 169.82637459 20.688522 167.92142158 17.1875 163.9375 C14.34869439 159.30576453 14.06964618 154.2542113 15 149 C16.90909557 145.59563016 19.34564706 142.84623387 22 140 C26.45724568 135.17302887 29.00293012 131.32405463 31 125 C27.41643451 125.26973074 26.10338861 125.90352491 23.4296875 128.3984375 C22.16511719 129.87183594 22.16511719 129.87183594 20.875 131.375 C20.02679688 132.35210938 19.17859375 133.32921875 18.3046875 134.3359375 C17.54414063 135.21507812 16.78359375 136.09421875 16 137 C15.00680752 138.00676149 14.00831633 139.00838607 13 140 C-8.034038 127.67391413 -8.034038 127.67391413 -17.375 121.75 C-23.24869816 118.02717027 -29.23440956 114.56999662 -35.31787109 111.20239258 C-41.03086478 108.02572796 -46.54027382 104.59740433 -52 101 C-51.41121799 97.35794543 -50.41946818 94.51109174 -48.69921875 91.25390625 C-47.98523926 89.89265625 -47.98523926 89.89265625 -47.25683594 88.50390625 C-46.73895508 87.53324219 -46.22107422 86.56257813 -45.6875 85.5625 C-45.14770508 84.53898437 -44.60791016 83.51546875 -44.05175781 82.4609375 C-40.03921943 74.8788487 -35.92267435 67.35547727 -31.78613281 59.84057617 C-27.00013396 51.09834679 -22.45596425 42.23667333 -17.90881348 33.36886597 C-12.14269812 22.13045554 -6.18253797 11.01592041 0 0 Z " fill="#F5F3E8" transform="translate(355,398)"/>
<path d="M0 0 C1.75957031 0.18949219 1.75957031 0.18949219 3.5546875 0.3828125 C8.82653067 1.12060226 13.73891801 2.42567772 18.73388672 4.24560547 C20.83899156 4.9463999 22.85992262 5.41852285 25.03515625 5.83984375 C30.782591 7.08109597 36.22677191 9.07057451 41.75 11.0625 C43.76452306 11.78562931 45.7801141 12.50579183 47.796875 13.22265625 C48.67698242 13.53984619 49.55708984 13.85703613 50.46386719 14.18383789 C61.94223078 17.87773176 71.19801377 15.88978801 82 11 C82.72316406 10.61585938 83.44632813 10.23171875 84.19140625 9.8359375 C86 9 86 9 89 9 C89.76908691 10.50844482 89.76908691 10.50844482 90.55371094 12.04736328 C102.71726634 35.97604998 102.71726634 35.97604998 115.41088867 59.62524414 C121.06710497 69.87067059 126.4959175 80.23725696 131.94750977 90.5925293 C132.32556763 91.30941925 132.70362549 92.0263092 133.09313965 92.7649231 C133.80402772 94.11303852 134.51374115 95.46177428 135.2220459 96.81124878 C136.65106856 99.52019541 138.10515125 102.16695106 139.73803711 104.75952148 C141 107 141 107 141 110 C139.98421875 110.52207031 138.9684375 111.04414062 137.921875 111.58203125 C125.75693042 118.01679891 116.7450314 125.82803879 107.3046875 135.85546875 C106 137 106 137 104 137 C104 137.66 104 138.32 104 139 C99.74633928 138.5173151 97.36994409 135.84485161 94.4375 133 C90.5671025 129.34304354 86.65939699 125.83234708 82.5 122.5 C78.52370574 119.30068278 74.73331702 115.97415055 71 112.5 C66.38998361 108.2104224 61.62216764 104.19589103 56.71484375 100.24609375 C53.89326505 97.9116941 51.19409288 95.48009402 48.5 93 C44.92207537 89.70668301 41.28460334 86.55348679 37.5 83.5 C32.74404581 79.66280969 28.24495199 75.60614899 23.75 71.46875 C21.06262366 69.05621896 18.31034556 66.7674379 15.5 64.5 C11.63704126 61.38204045 7.91456948 58.16167621 4.25 54.8125 C3.34636719 53.9875 2.44273437 53.1625 1.51171875 52.3125 C-0.03760326 50.88606356 -1.57856925 49.45041289 -3.10546875 48 C-5.07664056 46.12933986 -5.07664056 46.12933986 -8 44 C-11.50906491 44.33767696 -14.38034182 46.15939447 -17.4296875 47.8359375 C-18.47253906 48.40570313 -19.51539063 48.97546875 -20.58984375 49.5625 C-21.67394531 50.160625 -22.75804687 50.75875 -23.875 51.375 C-26.01777039 52.55031597 -28.16098611 53.72482047 -30.3046875 54.8984375 C-31.25327637 55.42099121 -32.20186523 55.94354492 -33.17919922 56.48193359 C-36 58 -36 58 -39.19580078 59.37646484 C-42.52101567 61.3016502 -43.19496223 62.54195491 -44.5625 66.078125 C-44.96726562 67.07457031 -45.37203125 68.07101562 -45.7890625 69.09765625 C-46.18867188 70.13792969 -46.58828125 71.17820312 -47 72.25 C-53.3108312 88.43422839 -53.3108312 88.43422839 -61.3125 92.8125 C-68.70625123 95.19353853 -76.17597199 97.14697793 -84 96 C-86.93423195 94.20353146 -88.47205355 93.0558929 -90 90 C-91.55382677 81.10081033 -88.3486468 74.00236914 -85.00390625 65.99609375 C-82.44109484 59.80335749 -80.48247509 53.41328789 -78.57397461 46.99267578 C-75.54902055 37.38182753 -69.47769963 33.83719199 -61.125 28.875 C-54.62506336 24.93601715 -48.27417783 20.92966251 -42.1875 16.375 C-41.59243652 15.93744385 -40.99737305 15.4998877 -40.38427734 15.04907227 C-37.25038691 12.73255162 -34.20041128 10.34770702 -31.19140625 7.87109375 C-20.89944603 -0.29140692 -12.9202956 -1.56555937 0 0 Z " fill="#F5F2E8" transform="translate(529,403)"/>
<path d="M0 0 C5.99188221 2.31877633 10.0904738 6.01842082 13.59375 11.3828125 C14.60020639 13.76865333 15.11320594 15.81991084 15.59375 18.3828125 C16.74875 18.0528125 17.90375 17.7228125 19.09375 17.3828125 C26.99757984 15.48312006 32.11765667 15.94656489 39.2578125 19.82421875 C44.16778603 23.10027133 48.10545364 27.57845669 49.59375 33.3828125 C49.71875 36.6953125 49.71875 36.6953125 49.59375 39.3828125 C50.25375 39.0528125 50.91375 38.7228125 51.59375 38.3828125 C58.88856598 37.28230147 64.56422476 39.2982954 70.59375 43.3828125 C74.99507975 47.36669654 78.36529759 51.6596556 78.73828125 57.73828125 C78.80856432 62.06388475 78.71546153 66.17639427 77.59375 70.3828125 C78.83125 70.41375 78.83125 70.41375 80.09375 70.4453125 C86.06298782 72.04421549 89.91269731 76.17643084 93.59375 81.0078125 C95.19064379 86.39732903 94.81722772 91.80414657 94.59375 97.3828125 C93.93375 96.0628125 93.27375 94.7428125 92.59375 93.3828125 C91.93375 93.3828125 91.27375 93.3828125 90.59375 93.3828125 C90.09875 95.3628125 90.09875 95.3628125 89.59375 97.3828125 C88.27375 97.3828125 86.95375 97.3828125 85.59375 97.3828125 C85.37332031 98.08277344 85.15289062 98.78273438 84.92578125 99.50390625 C83.27960774 103.06176513 80.9455341 105.63242291 78.28125 108.4453125 C77.80751953 108.96158203 77.33378906 109.47785156 76.84570312 110.00976562 C69.54234961 117.85262815 69.54234961 117.85262815 65.3828125 118.984375 C60.9232801 119.03267318 58.18197067 118.54385926 54.65625 115.6953125 C51.02864443 112.10129587 49.97295799 109.14095862 48.90625 104.1953125 C50.00692298 98.09158053 54.33065055 94.68068438 58.59375 90.3828125 C59.75531326 89.18959238 60.903732 87.9832539 62.03125 86.7578125 C62.48371094 86.29117188 62.93617188 85.82453125 63.40234375 85.34375 C65.29058667 82.23588789 65.80932251 78.92185744 66.59375 75.3828125 C65.71332031 76.28644531 64.83289063 77.19007813 63.92578125 78.12109375 C62.75287494 79.31276657 61.57968272 80.50415803 60.40625 81.6953125 C59.82810547 82.29021484 59.24996094 82.88511719 58.65429688 83.49804688 C55.48715354 86.70097714 52.54576144 89.15849456 48.59375 91.3828125 C47.23130204 93.02576445 45.89510125 94.69105587 44.59375 96.3828125 C39.92958607 99.49225512 35.05184575 99.1140053 29.59375 98.3828125 C26.53125 96.1328125 26.53125 96.1328125 24.59375 93.3828125 C24.07039063 92.7640625 23.54703125 92.1453125 23.0078125 91.5078125 C20.47410686 87.70025486 20.79190205 83.76978227 21.59375 79.3828125 C24.39376549 73.74175566 29.34694043 69.5108783 33.95703125 65.33984375 C35.88552266 63.03393875 36.24216281 61.33308764 36.59375 58.3828125 C35.93375 58.3828125 35.27375 58.3828125 34.59375 58.3828125 C34.305 58.9809375 34.01625 59.5790625 33.71875 60.1953125 C32.59375 62.3828125 32.59375 62.3828125 30.59375 65.3828125 C29.60375 64.8878125 29.60375 64.8878125 28.59375 64.3828125 C27.1468383 64.26650423 27.1468383 64.26650423 25.16015625 66.75390625 C23.64548003 68.29278502 22.13826016 69.83876303 20.63085938 71.38476562 C16.69856335 75.37972772 14.91250135 76.55076841 9.34375 76.6953125 C4.25437631 76.64209029 1.46993126 75.88082974 -2.40625 72.3828125 C-6.7897291 67.52544377 -7.67543352 63.89711713 -7.64453125 57.53125 C-7.33982829 54.78392825 -6.1696281 53.45286505 -4.40625 51.3828125 C-4.70015625 50.47208984 -4.70015625 50.47208984 -5 49.54296875 C-5.40625 47.3828125 -5.40625 47.3828125 -4.19140625 45.2421875 C-3.62292969 44.54609375 -3.05445313 43.85 -2.46875 43.1328125 C-1.90285156 42.42640625 -1.33695312 41.72 -0.75390625 40.9921875 C-0.30917969 40.46109375 0.13554687 39.93 0.59375 39.3828125 C-0.251875 40.1253125 -1.0975 40.8678125 -1.96875 41.6328125 C-6.36843146 45.24941248 -10.56560979 48.55673428 -16.46875 48.8828125 C-21.77355009 48.20918709 -24.717728 46.30423408 -28.21875 42.3203125 C-31.05755561 37.68857703 -31.33660382 32.6370238 -30.40625 27.3828125 C-28.49715443 23.97844266 -26.06060294 21.22904637 -23.40625 18.3828125 C-18.94900432 13.55584137 -16.40331988 9.70686713 -14.40625 3.3828125 C-15.06625 2.7228125 -15.72625 2.0628125 -16.40625 1.3828125 C-11.18952241 -1.60158543 -5.74896077 -1.47457111 0 0 Z " fill="#4E6F55" transform="translate(400.40625,519.6171875)"/>
<path d="M0 0 C1.38769531 2.0559082 1.38769531 2.0559082 2.828125 4.80078125 C3.37291504 5.82655273 3.91770508 6.85232422 4.47900391 7.90917969 C5.06343262 9.03227539 5.64786133 10.15537109 6.25 11.3125 C7.18897664 13.08697121 8.12796635 14.86143561 9.06765747 16.63552856 C10.05371593 18.50036892 11.03553694 20.36739155 12.01660156 22.23486328 C14.87407561 27.66806141 17.77704382 33.07684393 20.67913818 38.48629761 C21.62964973 40.25867012 22.57888299 42.03172212 23.52783203 43.80493164 C28.313995 52.7421299 33.15509169 61.64820445 38.01953125 70.54296875 C41.85606455 77.5601409 45.67033971 84.5894443 49.46582031 91.62890625 C51.74755807 95.85942433 54.03266244 100.08410798 56.41015625 104.26171875 C56.75006592 104.8662085 57.08997559 105.47069824 57.44018555 106.09350586 C58.29248654 107.60378589 59.1573052 109.10698438 60.0234375 110.609375 C61 113 61 113 60.94824219 114.92871094 C59.45164731 118.19779203 56.96968405 118.95028367 53.8046875 120.53125 C53.17901886 120.84904419 52.55335022 121.16683838 51.90872192 121.4942627 C49.90378428 122.50930581 47.88996443 123.50503309 45.875 124.5 C43.88371489 125.4990258 41.89441997 126.50191713 39.9055481 127.5057373 C38.08716842 128.42094519 36.26416133 129.32694202 34.44091797 130.23242188 C31.95309219 131.51040248 29.62800241 132.83025619 27.25048828 134.28320312 C26.17782715 134.84974609 25.10516602 135.41628906 24 136 C20.14742201 134.71580734 19.91958372 133.52644002 18.06640625 129.98828125 C17.22638062 128.40406372 17.22638062 128.40406372 16.36938477 126.7878418 C15.77311279 125.640979 15.17684082 124.49411621 14.5625 123.3125 C13.93325696 122.11899511 13.30295442 120.92604825 12.67163086 119.73364258 C11.70711755 117.91148737 10.74337192 116.08896801 9.78321838 114.26451111 C6.94252992 108.86827861 4.00855176 103.52662131 1.0625 98.1875 C-3.93541734 89.08225837 -8.71367565 79.86945953 -13.45993042 70.63165283 C-17.70004738 62.38209991 -22.02875242 54.18983862 -26.5 46.0625 C-33.51666615 33.26460254 -33.51666615 33.26460254 -36.3125 27.875 C-36.86550781 26.82054687 -37.41851563 25.76609375 -37.98828125 24.6796875 C-39.11679701 21.69064576 -39.24340258 20.87821454 -38 18 C-35.85791016 16.44775391 -35.85791016 16.44775391 -33.0390625 14.9765625 C-32.00910156 14.43 -30.97914063 13.8834375 -29.91796875 13.3203125 C-28.83128906 12.76085937 -27.74460937 12.20140625 -26.625 11.625 C-24.51296406 10.51312868 -22.40098461 9.40115004 -20.2890625 8.2890625 C-19.2465332 7.74926758 -18.20400391 7.20947266 -17.12988281 6.65332031 C-13.11290732 4.53140471 -9.17947227 2.27056973 -5.25537109 -0.01806641 C-3 -1 -3 -1 0 0 Z " fill="#F5F2E8" transform="translate(662,382)"/>
<path d="M0 0 C0 3 0 3 -2 6 C-2.33 6.99 -2.66 7.98 -3 9 C-5.0625 10.6875 -5.0625 10.6875 -7 12 C-6.01 12.33 -5.02 12.66 -4 13 C-4.64549805 13.3717334 -5.29099609 13.7434668 -5.95605469 14.12646484 C-8.9053139 15.84713118 -11.82694904 17.61020798 -14.75 19.375 C-15.76578125 19.95894531 -16.7815625 20.54289062 -17.828125 21.14453125 C-24.9185437 25.48274796 -27.86709254 29.00121312 -30 37 C-30.50635239 38.57120535 -31.01540581 40.14154317 -31.52734375 41.7109375 C-32.00036374 43.26472457 -32.47037645 44.81943008 -32.9375 46.375 C-34.62687178 51.925948 -36.4415269 57.21943231 -38.875 62.5 C-41.26006563 68.02127206 -42.18397637 73.04065226 -41 79 C-39.35288313 82.39723654 -39.35288313 82.39723654 -36 84 C-27.16694963 85.60456491 -16.48828085 82.74866591 -9 78 C-5.91634924 74.92890993 -4.53589949 71.95931647 -3.1953125 67.90234375 C0.79897368 56.08492316 4.53285276 48.65001894 16 42.9375 C18.74348934 41.65508713 21.49833146 40.42938325 24.2890625 39.25341797 C28.02481577 37.52617037 31.39325233 35.3281178 34.80859375 33.04125977 C37 32 37 32 39.13452148 32.21264648 C41.9842159 33.41540325 43.83366252 35.37292093 46.0625 37.5 C49.77014257 40.98278554 53.53097722 44.31111513 57.5 47.5 C62.25595419 51.33719031 66.75504801 55.39385101 71.25 59.53125 C73.93737634 61.94378104 76.68965444 64.2325621 79.5 66.5 C84.25739668 70.33835414 88.75783918 74.39622359 93.25390625 78.53515625 C95.91875166 80.92707297 98.64831825 83.19254884 101.4375 85.4375 C105.96651573 89.09034768 110.2476243 92.93314751 114.49951172 96.8984375 C118.74256482 100.83001036 123.17263675 104.45280567 127.72265625 108.02734375 C129.87878627 109.89500354 131.48976937 111.58561814 133 114 C132.979375 114.804375 132.95875 115.60875 132.9375 116.4375 C133.02412845 119.98926662 134.6630503 121.44396127 137 124 C131.9106068 124 130.34561247 121.93022003 126.9375 118.5625 C125.77453254 117.44931318 124.60913377 116.33866126 123.44140625 115.23046875 C122.86148926 114.6792334 122.28157227 114.12799805 121.68408203 113.56005859 C119.33605455 111.3849505 116.87195271 109.37615491 114.375 107.375 C110.62778787 104.36636881 107.0355077 101.25507083 103.5 98 C99.0301488 93.88621091 94.40955107 90.02912703 89.68359375 86.21484375 C87.05291443 84.04367173 84.52057576 81.79758643 82 79.5 C78.68010514 76.47717579 75.30235888 73.57487839 71.8125 70.75 C67.32929617 67.11531215 62.92734035 63.40008669 58.5625 59.625 C57.92820068 59.07859863 57.29390137 58.53219727 56.64038086 57.96923828 C53.53767634 55.27782158 50.49810164 52.54881076 47.55078125 49.6875 C47.01316162 49.17106934 46.47554199 48.65463867 45.92163086 48.12255859 C44.46420751 46.71137709 43.02445006 45.28201616 41.5859375 43.8515625 C39.21220756 41.78576766 39.21220756 41.78576766 36.65625 41.94140625 C32.94848977 43.41905775 29.56758916 45.30164185 26.125 47.3125 C25.44308594 47.70373047 24.76117188 48.09496094 24.05859375 48.49804688 C22.69365234 49.28191323 21.33427036 50.07554226 19.98071289 50.87890625 C18 52 18 52 16.07983398 52.85546875 C11.10208498 55.17695404 9.64447643 57.94422625 7.73632812 62.8125 C7.2790332 64.0809375 7.2790332 64.0809375 6.8125 65.375 C3.15608218 75.05594332 -0.80808484 83.50931699 -10.53515625 88.23046875 C-19.90111591 92.05133889 -32.0417987 94.90412323 -41.7890625 90.8359375 C-43.80535683 89.36336299 -45.38499994 87.89785317 -47 86 C-47.66 85.278125 -48.32 84.55625 -49 83.8125 C-53.21063077 71.97010095 -46.97911905 59.17577447 -42.7878418 48.10913086 C-41.93976163 45.8387359 -41.12582491 43.55788931 -40.31640625 41.2734375 C-39.88424805 40.066875 -39.88424805 40.066875 -39.44335938 38.8359375 C-38.85408078 37.18961593 -38.27078101 35.54114256 -37.69335938 33.890625 C-34.88079987 26.09814388 -31.95647352 21.14324351 -24.6875 16.75 C-23.44575898 15.98445902 -22.2049058 15.21747644 -20.96484375 14.44921875 C-20.32015137 14.05395996 -19.67545898 13.65870117 -19.01123047 13.25146484 C-15.54334186 11.09361136 -12.14754217 8.8289057 -8.75 6.5625 C-8.10635498 6.13743164 -7.46270996 5.71236328 -6.79956055 5.27441406 C-4.34363295 3.63999177 -2.0916734 2.0916734 0 0 Z " fill="#4C6E54" transform="translate(481,414)"/>
<path d="M0 0 C4.40298727 1.91307241 7.33129716 3.99694575 10 8 C10.64268443 13.597333 10.86148854 19.05228678 8.5625 24.25 C5.55140853 27.48141523 2.46513528 30.61772832 -0.69921875 33.69921875 C-2.78883942 35.78883942 -4.71608622 37.93386138 -6.625 40.1875 C-15.50979858 50.5427431 -15.50979858 50.5427431 -21.35546875 51.30859375 C-26.41167237 51.53873819 -30.03482833 51.62640707 -34.0625 48.3125 C-36.58665253 45.71588376 -38.2451467 43.6065213 -39 40 C-39.13921875 39.36449219 -39.2784375 38.72898437 -39.421875 38.07421875 C-39.87990481 34.28200137 -39.5022273 31.83396164 -37.515625 28.53515625 C-35.13710054 25.56200067 -32.60329519 22.77393678 -30 20 C-28.74528674 18.62834194 -27.49143334 17.255897 -26.23828125 15.8828125 C-9.97312858 -1.78578023 -9.97312858 -1.78578023 0 0 Z " fill="#F3F2E7" transform="translate(432,544)"/>
<path d="M0 0 C4.05718745 1.79974663 6.4740134 4.21950376 8.9375 7.875 C10.48705682 12.43252007 11.06587551 15.75258963 8.93579102 20.24389648 C5.1552626 26.68529809 0.77799604 31.6862199 -4.625 36.8125 C-6.11937921 38.25424214 -7.61163352 39.69819061 -9.1015625 41.14453125 C-9.78895508 41.81049316 -10.47634766 42.47645508 -11.18457031 43.16259766 C-13.30468823 45.30837596 -15.13536385 47.63199964 -17 50 C-21.66416393 53.10944262 -26.54190425 52.7311928 -32 52 C-35.0625 49.75 -35.0625 49.75 -37 47 C-37.52335937 46.38125 -38.04671875 45.7625 -38.5859375 45.125 C-41.11964314 41.31744236 -40.80184795 37.38696977 -40 33 C-37.25220098 27.46414117 -32.38565469 23.25703074 -28.00390625 19 C-26.06915851 17.0690237 -24.27874408 15.07452612 -22.5 13 C-10.05458647 -1.44812375 -10.05458647 -1.44812375 0 0 Z " fill="#F2F2E6" transform="translate(462,566)"/>
<path d="M0 0 C0.80969238 0.25088379 1.61938477 0.50176758 2.45361328 0.76025391 C50.1445008 15.69066061 97.04861031 47.64957446 127 88 C127.48098145 88.63695801 127.96196289 89.27391602 128.45751953 89.93017578 C139.63709283 104.77407052 148.98123784 120.24556648 157 137 C156.01 137 155.02 137 154 137 C153.44054687 135.87207031 152.88109375 134.74414062 152.3046875 133.58203125 C140.40759393 110.05346071 125.27568115 88.95411651 107 70 C106.07695068 69.03610352 106.07695068 69.03610352 105.13525391 68.05273438 C90.79545628 53.14477631 75.25640833 41.3540859 58 30 C57.36513672 29.57976562 56.73027344 29.15953125 56.07617188 28.7265625 C38.5758353 17.27738512 18.87138462 9.29225392 -1 3 C-2.09900635 2.64881104 -2.09900635 2.64881104 -3.22021484 2.29052734 C-11.0664203 -0.19047925 -18.98269775 -2.33298565 -27 -4.1875 C-27.65049316 -4.3424292 -28.30098633 -4.4973584 -28.97119141 -4.65698242 C-44.83487353 -8.16379157 -60.7341307 -8.31715596 -76.90209961 -8.26074219 C-80.55925026 -8.25000954 -84.21591095 -8.26069913 -87.87304688 -8.2734375 C-106.02797016 -8.33111812 -106.02797016 -8.33111812 -124 -6 C-124.33 -5.67 -124.66 -5.34 -125 -5 C-126.91325027 -4.74387134 -128.83107969 -4.52195961 -130.75 -4.3125 C-140.79052935 -2.93358702 -150.34494827 -0.01813347 -160 3 C-160.73089844 3.22671387 -161.46179688 3.45342773 -162.21484375 3.68701172 C-197.13350301 14.7187337 -228.61461289 34.14101464 -255.53125 58.7578125 C-257.17827511 60.25368657 -258.84526449 61.72786664 -260.53125 63.1796875 C-265.8024536 67.75131778 -270.30601576 72.53023363 -274.6015625 78.03125 C-276.61804445 80.52722115 -278.69702947 82.89088298 -280.8515625 85.265625 C-284.82486939 89.71262616 -288.34856066 94.35600651 -291.75 99.25 C-292.34417725 100.10190918 -292.93835449 100.95381836 -293.55053711 101.83154297 C-303.48787609 116.31540282 -312.58024505 131.92579463 -318.953125 148.328125 C-320.88300313 153.25363485 -322.95473 158.12152812 -325 163 C-325.66 162.01 -326.32 161.02 -327 160 C-326.2235803 157.19010013 -325.35195789 154.68248361 -324.25 152 C-323.93216553 151.2069043 -323.61433105 150.41380859 -323.28686523 149.59667969 C-319.81058152 141.16220042 -315.60417613 133.14094449 -311.19482422 125.16308594 C-310.11721965 123.21221211 -309.05844214 121.25245943 -308.00390625 119.2890625 C-297.44485954 100.10276972 -283.61272048 82.88652235 -268.6875 66.9375 C-268.04200195 66.24720703 -267.39650391 65.55691406 -266.73144531 64.84570312 C-262.3837965 60.27321431 -257.81575744 56.07340039 -253 52 C-252.392771 51.48123291 -251.78554199 50.96246582 -251.15991211 50.42797852 C-241.5837814 42.30759551 -231.60601864 35.06772026 -221.03222656 28.30322266 C-219.24830984 27.15923569 -217.4784166 25.99344186 -215.7109375 24.82421875 C-153.39533614 -15.35082657 -69.74002742 -22.16000485 0 0 Z " fill="#214C2A" transform="translate(594,261)"/>
<path d="M0 0 C4.05151112 2.02575556 6.59876061 4.1906684 9 8 C9.8931884 12.45901807 9.96585948 16.9914513 7.96875 21.14453125 C6.43224785 23.24014946 4.77687701 25.10345577 3 27 C1.89785156 28.27423828 1.89785156 28.27423828 0.7734375 29.57421875 C-8.97691453 40.74310026 -8.97691453 40.74310026 -14.9375 41.5 C-19.18078032 41.2758267 -21.73124031 39.73663602 -25 37 C-28.83703926 32.63371395 -29.53466722 28.36071464 -29.46875 22.68359375 C-28.5991172 17.70494598 -25.34429464 14.6083179 -22 11 C-21.29359375 10.17757812 -20.5871875 9.35515625 -19.859375 8.5078125 C-13.5798964 1.22826879 -9.78962072 -1.14842475 0 0 Z " fill="#F3F1E7" transform="translate(399,527)"/>
<path d="M0 0 C3.1926695 0.77993156 4.9866079 2.17140231 7.22265625 4.54296875 C9.74907083 8.83428997 9.98224205 12.67030666 9.22265625 17.54296875 C6.41659053 24.55813306 0.37079772 30.19293938 -4.77734375 35.54296875 C-5.56818359 36.40728516 -5.56818359 36.40728516 -6.375 37.2890625 C-9.10807692 39.97646126 -11.48858354 40.93513278 -15.21484375 41.23046875 C-19.71961616 40.97174871 -22.2425004 39.31417929 -25.40234375 36.18359375 C-28.04330886 33.0324422 -28.61181803 30.31040618 -29.46484375 26.35546875 C-28.35589427 20.20583982 -24.0503613 16.89139249 -19.77734375 12.54296875 C-17.96746758 10.558866 -16.187929 8.54912629 -14.40234375 6.54296875 C-9.56733005 1.1400328 -7.22094437 -0.9980167 0 0 Z " fill="#F2F1E6" transform="translate(478.77734375,597.45703125)"/>
<path d="M0 0 C0.66 0 1.32 0 2 0 C-4.65908189 18.59584037 -20.22973724 35.44805385 -33.671875 49.49609375 C-36.09310109 51.96595194 -36.09310109 51.96595194 -38 55 C-38.66 55 -39.32 55 -40 55 C-40 55.66 -40 56.32 -40 57 C-40.66 57 -41.32 57 -42 57 C-42 57.66 -42 58.32 -42 59 C-43.3984375 60.41015625 -43.3984375 60.41015625 -45.375 62.0625 C-48.54484167 64.74937105 -51.63410845 67.49398472 -54.6875 70.3125 C-103.60612817 114.19865205 -169.70290288 136.1534149 -235 134 C-236.25296875 133.97035156 -237.5059375 133.94070313 -238.796875 133.91015625 C-285.66364681 132.29226744 -285.66364681 132.29226744 -301 122 C-297.49320943 120.83106981 -296.2231014 121.23787333 -292.6953125 122.14453125 C-291.64303467 122.40854736 -290.59075684 122.67256348 -289.5065918 122.94458008 C-288.3906665 123.23099365 -287.27474121 123.51740723 -286.125 123.8125 C-220.69340419 140.0508966 -149.35352462 128.42075918 -91.71142578 93.82641602 C-64.07221842 76.88746609 -38.13609226 54.26596357 -19 28 C-18.5767041 27.42685059 -18.1534082 26.85370117 -17.71728516 26.26318359 C-12.45276803 19.12374203 -7.48452671 11.84196584 -2.86669922 4.265625 C-1.96205563 2.81082067 -0.98726846 1.40004881 0 0 Z " fill="#254C2C" transform="translate(740,641)"/>
<path d="M0 0 C1.46463668 2.7708599 2.5390538 5.4667586 3.4453125 8.46484375 C3.7131958 9.3364917 3.9810791 10.20813965 4.25708008 11.10620117 C4.54349365 12.04052979 4.82990723 12.9748584 5.125 13.9375 C10.60959828 31.38928116 16.89098805 47.88948835 25.82128906 63.88525391 C26.89638648 65.81410516 27.94759853 67.75373808 28.9921875 69.69921875 C36.6736093 83.67558166 46.07491346 96.48710577 56.61987305 108.43139648 C57.60804947 109.55452288 58.58774383 110.68513456 59.56176758 111.82055664 C71.09176576 125.20279003 83.69186911 137.62345816 98 148 C99.14884745 148.85491814 100.29727984 149.71039429 101.4453125 150.56640625 C109.63748622 156.60951198 118.15486012 161.96914599 127 167 C127.63180176 167.36448242 128.26360352 167.72896484 128.91455078 168.10449219 C144.38050829 176.95669217 161.06354502 183.53093641 178 189 C178 189.33 178 189.66 178 190 C170.97234318 190.71771814 165.47457438 188.16984929 159.0625 185.5 C157.9472998 185.04294678 156.83209961 184.58589355 155.68310547 184.11499023 C146.89707363 180.46950531 138.34139237 176.5705702 130 172 C129.25057129 171.59168945 128.50114258 171.18337891 127.72900391 170.76269531 C111.05150437 161.59669536 96.36741754 150.58179858 81.75341797 138.44628906 C80.57972575 137.47818092 79.39626369 136.52180277 78.20361328 135.57714844 C76.76699207 134.4276833 75.3781838 133.21891757 74 132 C74 131.34 74 130.68 74 130 C73.34 130 72.68 130 72 130 C72 129.34 72 128.68 72 128 C70.02 127.01 70.02 127.01 68 126 C68 125.34 68 124.68 68 124 C67.34 124 66.68 124 66 124 C64.58984375 122.6015625 64.58984375 122.6015625 62.9375 120.625 C60.29878899 117.50849769 57.59684332 114.48684101 54.8125 111.5 C44.91643877 100.49315639 36.64355098 88.3542505 29.02832031 75.69384766 C28.17373874 74.28618218 27.28970659 72.89644658 26.3984375 71.51171875 C14.83826506 53.33189449 6.51879814 32.12031706 0.9375 11.375 C0.7211792 10.57497559 0.5048584 9.77495117 0.28198242 8.95068359 C-1.12776629 3.38329888 -1.12776629 3.38329888 0 0 Z " fill="#254C2D" transform="translate(260,572)"/>
<path d="M0 0 C4.45040548 0.69620778 7.11848074 3.40710745 10.375 6.3125 C11.62877932 7.40899932 12.88268929 8.50534926 14.13671875 9.6015625 C14.77657715 10.16520508 15.41643555 10.72884766 16.07568359 11.30957031 C19.09235428 13.95958653 22.1385978 16.5746991 25.1875 19.1875 C25.76177734 19.68064697 26.33605469 20.17379395 26.92773438 20.68188477 C32.21385516 25.20951638 37.58663931 29.62512075 43 34 C42.401875 34.0825 41.80375 34.165 41.1875 34.25 C38.4033704 35.20455872 37.56688858 36.57132271 36 39 C35.33355469 38.38253906 34.66710937 37.76507812 33.98046875 37.12890625 C28.36169317 31.96591945 22.64352151 27.02521736 16.703125 22.23046875 C13.11358799 19.268582 9.67842693 16.15242309 6.23828125 13.01953125 C3.55387852 10.59747853 0.80118216 8.28517492 -2 6 C-1.125 1.125 -1.125 1.125 0 0 Z " fill="#52735A" transform="translate(540,520)"/>
<path d="M0 0 C4.30408344 0.31029439 7.04971819 3.33826536 10.125 6.0625 C11.29074379 7.07268056 12.45741869 8.08178758 13.625 9.08984375 C14.19863281 9.58726074 14.77226563 10.08467773 15.36328125 10.59716797 C18.3501373 13.157203 21.44189623 15.58318968 24.5234375 18.02734375 C31.09061226 23.25829525 37.56449086 28.60808694 44 34 C43.01 34 42.02 34 41 34 C40.195625 34.061875 39.39125 34.12375 38.5625 34.1875 C35.49138261 33.96278409 34.26605454 33.0142707 32 31 C32 31.66 32 32.32 32 33 C32.66 33 33.32 33 34 33 C33.505 33.99 33.505 33.99 33 35 C16.5 21.5 16.5 21.5 13.78515625 19.27734375 C11.8364669 17.68395541 9.88577883 16.09300977 7.93359375 14.50390625 C6.94488281 13.69824219 5.95617187 12.89257812 4.9375 12.0625 C3.58978516 10.96615234 3.58978516 10.96615234 2.21484375 9.84765625 C0 8 0 8 -2 6 C-1.44444444 1.44444444 -1.44444444 1.44444444 0 0 Z " fill="#507158" transform="translate(514,551)"/>
<path d="M0 0 C0.66 0 1.32 0 2 0 C2.7233347 5.88488584 3.1674593 11.64005757 3.203125 17.56640625 C3.21364647 18.74829277 3.21364647 18.74829277 3.22438049 19.95405579 C3.24180756 22.49026269 3.24823559 25.02623536 3.25 27.5625 C3.25067474 28.43304016 3.25134949 29.30358032 3.25204468 30.20050049 C3.2346614 44.34724198 2.44688941 58.04439427 0 72 C-0.23348145 73.4530957 -0.23348145 73.4530957 -0.47167969 74.93554688 C-4.75844349 101.37486852 -12.97147945 135.61913011 -30 157 C-30.66 157 -31.32 157 -32 157 C-30.82205198 153.83305779 -29.43915722 150.81728326 -27.93359375 147.796875 C-21.18677994 134.21463495 -15.76307245 120.39346386 -11 106 C-10.73848145 105.22156738 -10.47696289 104.44313477 -10.20751953 103.64111328 C-6.81829541 93.34643321 -4.98129105 82.80003612 -3.25 72.125 C-3.14272583 71.46441589 -3.03545166 70.80383179 -2.92492676 70.12322998 C-0.32162727 53.88973323 0.13055816 38.1533015 0.0625 21.75 C0.05747533 19.63671981 0.05291413 17.52343846 0.04882812 15.41015625 C0.03789833 10.27340858 0.0206869 5.13671726 0 0 Z " fill="#275030" transform="translate(773,483)"/>
<path d="M0 0 C4.00057362 0.25667397 6.68087713 2.81409799 9.75 5.1875 C10.81248379 6.0026253 11.87498385 6.81772939 12.9375 7.6328125 C13.948125 8.41398438 14.95875 9.19515625 16 10 C17.58101665 11.19058266 19.16395188 12.37862837 20.75 13.5625 C21.83333333 14.375 22.91666667 15.1875 24 16 C22.02 16.99 22.02 16.99 20 18 C19.566875 17.505 19.13375 17.01 18.6875 16.5 C17.00259517 14.66781808 17.00259517 14.66781808 14 15 C13.67 15 13.34 15 13 15 C12.67 15.66 12.34 16.32 12 17 C9.84089537 15.45349251 7.69899733 13.88970484 5.5625 12.3125 C4.95083984 11.87744141 4.33917969 11.44238281 3.70898438 10.99414062 C0.98062496 8.95917642 -0.80416977 7.51211452 -2.03515625 4.29296875 C-2 2 -2 2 0 0 Z " fill="#4B6D52" transform="translate(497,585)"/>
<path d="M0 0 C0 0.33 0 0.66 0 1 C-6.62616843 1.83583203 -13.13378176 2.18589201 -19.80859375 2.28125 C-20.8153566 2.29965942 -21.82211945 2.31806885 -22.85939026 2.33703613 C-26.05203904 2.39530275 -29.24473835 2.44831296 -32.4375 2.5 C-36.6446296 2.568222 -40.85161397 2.64189521 -45.05859375 2.71875 C-46.48092567 2.73911316 -46.48092567 2.73911316 -47.93199158 2.7598877 C-53.29309514 2.8582495 -58.49687624 3.21692768 -63.80653381 3.9864502 C-66.3852482 4.00237981 -67.80813385 3.30689987 -70 2 C-47.03681299 -1.98854682 -23.18963049 -2.17524172 0 0 Z " fill="#27512E" transform="translate(542,250)"/>
<path d="M0 0 C0.99 0 1.98 0 3 0 C2.98952637 0.87922119 2.97905273 1.75844238 2.96826172 2.66430664 C2.79120706 19.85765859 2.98143577 36.76063579 4.8125 53.88037109 C5.05243082 56.59271408 5.07124703 59.27925394 5 62 C4.67 60.68 4.34 59.36 4 58 C3.34 58 2.68 58 2 58 C0.22418279 44.90059524 -0.2526752 32.08336057 -0.125 18.875 C-0.11493197 17.02995287 -0.105813 15.18490032 -0.09765625 13.33984375 C-0.07598716 8.89309077 -0.04167694 4.44660859 0 0 Z " fill="#274F2E" transform="translate(252,493)"/>
<path d="M0 0 C0.85722656 -0.00515625 1.71445312 -0.0103125 2.59765625 -0.015625 C4.9375 0.25 4.9375 0.25 7.9375 2.25 C7.9375 3.57 7.9375 4.89 7.9375 6.25 C5.37275966 8.81474034 4.12300157 8.55908839 0.5625 8.75 C-3.18273688 8.95189956 -5.8089165 9.33794145 -9.0625 11.25 C-8.48665568 8.86435923 -7.84022405 6.58317216 -7.0625 4.25 C-7.7225 3.59 -8.3825 2.93 -9.0625 2.25 C-5.93061623 0.41882898 -3.61429405 -0.0218057 0 0 Z " fill="#527259" transform="translate(393.0625,518.75)"/>
<path d="M0 0 C0.66 1.32 1.32 2.64 2 4 C-0.64 6.31 -3.28 8.62 -6 11 C-4.55802132 12.44197868 -2.82308429 13.11786244 -1 14 C-2.43294498 14.84114171 -3.87154405 15.67265687 -5.3125 16.5 C-6.11300781 16.9640625 -6.91351563 17.428125 -7.73828125 17.90625 C-10 19 -10 19 -13 19 C-13.66 18.01 -14.32 17.02 -15 16 C-18.55672179 14.7811879 -18.55672179 14.7811879 -22 14 C-19.08787854 12.42316004 -16.32840117 11.5008246 -13.125 10.6875 C-7.52497681 9.052095 -3.69358781 6.84830677 -0.625 1.6875 C-0.315625 0.8521875 -0.315625 0.8521875 0 0 Z " fill="#547459" transform="translate(477,485)"/>
<path d="M0 0 C5.33236275 1.30057628 9.42598654 3.8444163 13 8 C13 8.99 13 9.98 13 11 C12.34 11 11.68 11 11 11 C11.33 11.99 11.66 12.98 12 14 C6.7076121 12.70917368 2.35002624 10.35094871 -1 6 C-0.9375 2.625 -0.9375 2.625 0 0 Z " fill="#4C6D53" transform="translate(552,531)"/>
<path d="M0 0 C1.32 0 2.64 0 4 0 C3.35145219 4.98510633 2.73329514 8.95243552 -0.1875 13.125 C-3.68748843 15.45832562 -5.87469806 15.40444137 -10 15 C-10.33 14.34 -10.66 13.68 -11 13 C-9.71372289 11.82739389 -8.42080217 10.6620717 -7.125 9.5 C-6.40570313 8.8503125 -5.68640625 8.200625 -4.9453125 7.53125 C-3 6 -3 6 -1 6 C-1.20625 5.38125 -1.4125 4.7625 -1.625 4.125 C-1.74875 3.42375 -1.8725 2.7225 -2 2 C-1.34 1.34 -0.68 0.68 0 0 Z " fill="#46684F" transform="translate(480,483)"/>
<path d="M0 0 C2.6428737 2.2845952 3.53771491 4.0447224 4.3515625 7.421875 C4.56296875 8.28296875 4.774375 9.1440625 4.9921875 10.03125 C5.20101562 10.9284375 5.40984375 11.825625 5.625 12.75 C5.8415625 13.63171875 6.058125 14.5134375 6.28125 15.421875 C7.97411728 22.44413928 9.14397658 29.18608432 9.0625 36.4375 C9.05347656 37.48808594 9.04445313 38.53867187 9.03515625 39.62109375 C9.02355469 40.40613281 9.01195312 41.19117188 9 42 C6.65698624 38.19510586 6.25446828 34.08613329 5.625 29.75 C4.54755031 22.75693024 3.12476061 15.95591439 1.27001953 9.12792969 C0.40763581 5.90555931 0 3.37938213 0 0 Z " fill="#214F2A" transform="translate(764,437)"/>
<path d="M0 0 C1.30295848 2.60591695 0.76724913 3.40864766 -0.07421875 6.15625 C-0.45489502 7.43109253 -0.45489502 7.43109253 -0.84326172 8.73168945 C-1.12186035 9.64523193 -1.40045898 10.55877441 -1.6875 11.5 C-4.57929018 21.25325031 -6.93316 31.04269435 -9 41 C-10.46007031 39.06709554 -11.04019059 37.57571129 -10.87060547 35.14648438 C-10.46297077 32.8271652 -9.97037649 30.54383464 -9.4375 28.25 C-9.25203613 27.4154126 -9.06657227 26.5808252 -8.87548828 25.72094727 C-7.57953102 20.06493527 -6.07976521 14.48360103 -4.375 8.9375 C-4.16931396 8.26557617 -3.96362793 7.59365234 -3.75170898 6.90136719 C-2.8214146 4.01146848 -2.17764468 2.17764468 0 0 Z " fill="#224F28" transform="translate(267,425)"/>
<path d="M0 0 C0.66 0.33 1.32 0.66 2 1 C1.195625 1.763125 0.39125 2.52625 -0.4375 3.3125 C-3.16799024 5.79430898 -3.16799024 5.79430898 -4 9 C-3.34 9 -2.68 9 -2 9 C-1.67 8.01 -1.34 7.02 -1 6 C-0.01 6.66 0.98 7.32 2 8 C0.71186658 8.83878455 -0.58063256 9.67086783 -1.875 10.5 C-2.59429687 10.9640625 -3.31359375 11.428125 -4.0546875 11.90625 C-6 13 -6 13 -8 13 C-8 11.68 -8 10.36 -8 9 C-8.99 9.66 -9.98 10.32 -11 11 C-11.99 10.01 -12.98 9.02 -14 8 C-11.7136988 6.63597957 -9.42178251 5.28365726 -7.125 3.9375 C-6.47402344 3.54755859 -5.82304687 3.15761719 -5.15234375 2.75585938 C-3.46934275 1.77555467 -1.73703801 0.88101568 0 0 Z " fill="#51755A" transform="translate(511,450)"/>
<path d="M0 0 C1.32 0 2.64 0 4 0 C4 1.32 4 2.64 4 4 C1.734375 5.9921875 1.734375 5.9921875 -1.25 7.875 C-2.71179688 8.83019531 -2.71179688 8.83019531 -4.203125 9.8046875 C-7 11 -7 11 -9.359375 10.1953125 C-9.90078125 9.80085938 -10.4421875 9.40640625 -11 9 C-10.75 7.125 -10.75 7.125 -10 5 C-8.125 3.6875 -8.125 3.6875 -6 3 C-5.01 3.33 -4.02 3.66 -3 4 C-2.5875 3.34 -2.175 2.68 -1.75 2 C-1.1725 1.34 -0.595 0.68 0 0 Z " fill="#486A50" transform="translate(464,429)"/>
<path d="M0 0 C0.66 0 1.32 0 2 0 C3.09858767 8.78526469 2.94610508 17.35576463 2.5625 26.1875 C2.50911411 27.53447954 2.45637575 28.88148491 2.40429688 30.22851562 C2.2758661 33.48598722 2.14096717 36.74305095 2 40 C1.67 40 1.34 40 1 40 C0.67 26.8 0.34 13.6 0 0 Z " fill="#194821" transform="translate(773,483)"/>
<path d="M0 0 C0.33 0 0.66 0 1 0 C0.85823579 2.70860124 0.71171784 5.41680752 0.5625 8.125 C0.50352539 9.26582031 0.50352539 9.26582031 0.44335938 10.4296875 C0.20490998 14.68509203 -0.20230237 18.80370826 -1 23 C-1.99 23 -2.98 23 -4 23 C-3.72128836 19.91535226 -3.4247659 16.83266721 -3.125 13.75 C-3.04636719 12.87730469 -2.96773437 12.00460937 -2.88671875 11.10546875 C-2.80292969 10.26113281 -2.71914062 9.41679687 -2.6328125 8.546875 C-2.55949707 7.77182617 -2.48618164 6.99677734 -2.41064453 6.19824219 C-1.97040643 3.84158115 -1.16622346 2.08343123 0 0 Z " fill="#254D2C" transform="translate(256,468)"/>
<path d="M0 0 C2 0.875 2 0.875 3 3 C3.33 3.94875 3.66 4.8975 4 5.875 C5.26861356 8.24996259 6.63434525 10.55338693 8 12.875 C5.625 12.5625 5.625 12.5625 3 11.875 C1 8.875 1 8.875 1 5.875 C0.34 5.875 -0.32 5.875 -1 5.875 C-2.625 3.375 -2.625 3.375 -4 0.875 C-2 -0.125 -2 -0.125 0 0 Z " fill="#45674D" transform="translate(585,503.125)"/>
<path d="M0 0 C5.33333333 4 10.66666667 8 16 12 C15.67 12.99 15.34 13.98 15 15 C9.72 10.71 4.44 6.42 -1 2 C-0.67 1.34 -0.34 0.68 0 0 Z " fill="#204A28" transform="translate(671,301)"/>
<path d="M0 0 C0.33 0.99 0.66 1.98 1 3 C-2.02155998 8.90577633 -6.98755003 12.78011691 -12 17 C-12.66 16.67 -13.32 16.34 -14 16 C-13.40832031 15.43152344 -12.81664062 14.86304688 -12.20703125 14.27734375 C-7.5968811 9.77248251 -3.5499655 5.38220575 0 0 Z " fill="#53765C" transform="translate(485,619)"/>
<path d="M0 0 C5.02692063 0.45699278 8.14896261 2.99241748 12 6 C11.67 7.32 11.34 8.64 11 10 C9.16375669 8.52444734 7.3310715 7.04446569 5.5 5.5625 C4.4790625 4.73878906 3.458125 3.91507813 2.40625 3.06640625 C1.6121875 2.38449219 0.818125 1.70257812 0 1 C0 0.67 0 0.34 0 0 Z " fill="#4A6952" transform="translate(521,558)"/>
<path d="M0 0 C0.33 0 0.66 0 1 0 C0.46246904 6.18160604 -1.54582388 11.326858 -4 17 C-4.66 16.01 -5.32 15.02 -6 14 C-5.13671875 10.8984375 -5.13671875 10.8984375 -3.6875 7.375 C-3.21699219 6.20710938 -2.74648438 5.03921875 -2.26171875 3.8359375 C-1 1 -1 1 0 0 Z " fill="#245530" transform="translate(273,407)"/>
<path d="M0 0 C1.72251754 4.0845326 0.07280563 7.36973696 -1.4375 11.25 C-1.68048828 11.8996875 -1.92347656 12.549375 -2.17382812 13.21875 C-2.77285994 14.81616817 -3.38514321 16.40860594 -4 18 C-4.66 17.01 -5.32 16.02 -6 15 C-5.3203125 12.08203125 -5.3203125 12.08203125 -4.125 8.8125 C-3.73570312 7.72582031 -3.34640625 6.63914062 -2.9453125 5.51953125 C-2.47738281 4.27236328 -2.47738281 4.27236328 -2 3 C-1.34 3 -0.68 3 0 3 C0 2.01 0 1.02 0 0 Z " fill="#2A5338" transform="translate(765,583)"/>
<path d="M0 0 C0.66 0.66 1.32 1.32 2 2 C1.828125 4.93359375 1.828125 4.93359375 1.25 8.4375 C1.06953125 9.59121094 0.8890625 10.74492187 0.703125 11.93359375 C0 15 0 15 -2 18 C-3.23940347 13.64156793 -2.66253286 10.54363011 -1.5625 6.1875 C-1.27503906 5.02605469 -0.98757813 3.86460937 -0.69140625 2.66796875 C-0.46324219 1.78753906 -0.23507812 0.90710938 0 0 Z " fill="#275331" transform="translate(259,448)"/>
<path d="M0 0 C0.66 0 1.32 0 2 0 C4.31 4.62 6.62 9.24 9 14 C8.01 14 7.02 14 6 14 C4.99515796 12.04414675 3.99626195 10.08523763 3 8.125 C2.1646875 6.48917969 2.1646875 6.48917969 1.3125 4.8203125 C0 2 0 2 0 0 Z " fill="#1F4927" transform="translate(742,384)"/>
<path d="M0 0 C3.60415049 1.2013835 4.14706011 2.26143988 6.1875 5.375 C6.71730469 6.16648437 7.24710937 6.95796875 7.79296875 7.7734375 C9 10 9 10 9 13 C8.34 13 7.68 13 7 13 C5.2734375 10.6640625 5.2734375 10.6640625 3.375 7.625 C2.74335938 6.62726562 2.11171875 5.62953125 1.4609375 4.6015625 C0 2 0 2 0 0 Z " fill="#275438" transform="translate(291,649)"/>
<path d="M0 0 C0.66 0.33 1.32 0.66 2 1 C-6.49869452 11.44125326 -6.49869452 11.44125326 -12 14 C-8.34161026 8.88863277 -4.55388068 4.33702922 0 0 Z " fill="#54755B" transform="translate(382,522)"/>
<path d="M0 0 C0.99 0.33 1.98 0.66 3 1 C4.16796875 3.94140625 4.16796875 3.94140625 5.1875 7.5625 C5.53167969 8.76003906 5.87585938 9.95757812 6.23046875 11.19140625 C6.48441406 12.11824219 6.73835937 13.04507812 7 14 C6.01 14 5.02 14 4 14 C3.32968281 12.0429132 2.66385317 10.08428887 2 8.125 C1.62875 7.03445313 1.2575 5.94390625 0.875 4.8203125 C0 2 0 2 0 0 Z " fill="#1E4C27" transform="translate(759,422)"/>
<path d="M0 0 C0.66 0.33 1.32 0.66 2 1 C-1.40712181 4.97497544 -5.32760855 6.86793788 -10 9 C-9.77734375 7.17578125 -9.77734375 7.17578125 -9 5 C-7.00390625 3.48046875 -7.00390625 3.48046875 -4.5625 2.1875 C-3.35787109 1.52814453 -3.35787109 1.52814453 -2.12890625 0.85546875 C-1.42636719 0.57316406 -0.72382812 0.29085938 0 0 Z " fill="#E6E7DD" transform="translate(633,395)"/>
<path d="M0 0 C0.66 0.66 1.32 1.32 2 2 C0.88407791 4.00507927 -0.24298712 6.00396096 -1.375 8 C-2.31472656 9.670625 -2.31472656 9.670625 -3.2734375 11.375 C-3.84320313 12.24125 -4.41296875 13.1075 -5 14 C-5.66 14 -6.32 14 -7 14 C-5.53967505 8.68972746 -3.01679014 4.53669968 0 0 Z " fill="#225234" transform="translate(290,374)"/>
<path d="M0 0 C1.98 0.66 3.96 1.32 6 2 C6 2.99 6 3.98 6 5 C5.01 5 4.02 5 3 5 C3.33 5.66 3.66 6.32 4 7 C2.35 6.67 0.7 6.34 -1 6 C-0.67 4.02 -0.34 2.04 0 0 Z " fill="#42644B" transform="translate(552,531)"/>
<path d="M0 0 C4.9723422 1.49170266 9.41845739 3.60457417 14 6 C13.01 6.66 12.02 7.32 11 8 C7.37 6.02 3.74 4.04 0 2 C0 1.34 0 0.68 0 0 Z " fill="#1D4323" transform="translate(390,742)"/>
<path d="M0 0 C1.44098611 0.76429661 2.87766054 1.53672555 4.3125 2.3125 C5.11300781 2.74175781 5.91351563 3.17101562 6.73828125 3.61328125 C8.83787272 4.90059554 10.35447721 6.18406708 12 8 C7.24518354 7.42365861 4.02951788 5.44931479 0 3 C0 2.01 0 1.02 0 0 Z " fill="#527459" transform="translate(339,520)"/>
<path d="M0 0 C5.28137429 0.51525603 8.57221156 2.25477117 13 5 C12.67 5.66 12.34 6.32 12 7 C7.69235185 5.43358249 3.93828536 3.31663844 0 1 C0 0.67 0 0.34 0 0 Z " fill="#1D4825" transform="translate(637,281)"/>
<path d="M0 0 C0.99 0.66 1.98 1.32 3 2 C1.23141309 2.67260351 -0.53996016 3.33788395 -2.3125 4 C-3.29863281 4.37125 -4.28476562 4.7425 -5.30078125 5.125 C-8 6 -8 6 -11 6 C-11 5.34 -11 4.68 -11 4 C-9.23585377 3.27517252 -7.46337096 2.57060704 -5.6875 1.875 C-4.70136719 1.48054688 -3.71523438 1.08609375 -2.69921875 0.6796875 C-1.80847656 0.45539063 -0.91773438 0.23109375 0 0 Z " fill="#184B21" transform="translate(430,262)"/>
<path d="M0 0 C0 0.33 0 0.66 0 1 C-1.175625 1.1546875 -1.175625 1.1546875 -2.375 1.3125 C-5.33045181 1.77595022 -5.33045181 1.77595022 -7 5 C-9.95264073 7.04413589 -11.36672806 8 -15 8 C-13.64266013 6.64869276 -12.26325362 5.3195282 -10.875 4 C-10.10929687 3.2575 -9.34359375 2.515 -8.5546875 1.75 C-5.46536373 -0.36623402 -3.66835926 -0.34025361 0 0 Z " fill="#D9DFD2" transform="translate(478,597)"/>
<path d="M0 0 C4.2742558 1.5830577 6.26531794 4.50568404 9 8 C2.18181818 6.03030303 2.18181818 6.03030303 0 3 C0 2.01 0 1.02 0 0 Z " fill="#45664E" transform="translate(577,556)"/>
<path d="M0 0 C0.66 1.32 1.32 2.64 2 4 C-1.3 6.64 -4.6 9.28 -8 12 C-8.99 11.34 -9.98 10.68 -11 10 C-10.0925 9.608125 -9.185 9.21625 -8.25 8.8125 C-4.26844818 6.59201918 -2.03069992 4.06139984 0 0 Z " fill="#5A7B61" transform="translate(477,485)"/>
<path d="M0 0 C3 1 3 1 3.94921875 2.671875 C5.33170943 6.56333025 6.39357798 9.80183483 6 14 C3.74402173 11.74402173 3.03425808 9.95396133 1.875 7 C1.52179687 6.113125 1.16859375 5.22625 0.8046875 4.3125 C0 2 0 2 0 0 Z " fill="#254F2C" transform="translate(753,407)"/>
<path d="M0 0 C0.33 0.99 0.66 1.98 1 3 C-1.31 5.31 -3.62 7.62 -6 10 C-6.99 9.67 -7.98 9.34 -9 9 C-6.03 6.03 -3.06 3.06 0 0 Z " fill="#12301A" transform="translate(333,320)"/>
<path d="M0 0 C5.23175837 -0.38281159 8.37802694 0.78145293 13 3 C13 3.66 13 4.32 13 5 C8.15340923 4.40895235 4.39251833 3.02055843 0 1 C0 0.67 0 0.34 0 0 Z " fill="#1A4223" transform="translate(603,266)"/>
<path d="M0 0 C11.52164009 0.96355353 11.52164009 0.96355353 17 2 C17 2.33 17 2.66 17 3 C10.6447755 4.5197276 6.08291273 3.1663492 0 1 C0 0.67 0 0.34 0 0 Z " fill="#1B4321" transform="translate(462,768)"/>
<path d="M0 0 C0.99 1.32 1.98 2.64 3 4 C2.34 4 1.68 4 1 4 C1 4.66 1 5.32 1 6 C0.01 6 -0.98 6 -2 6 C-2.33 6.66 -2.66 7.32 -3 8 C-3.66 8 -4.32 8 -5 8 C-4.67 6.68 -4.34 5.36 -4 4 C-3.34 4 -2.68 4 -2 4 C-1.34 2.68 -0.68 1.36 0 0 Z " fill="#44694D" transform="translate(512,451)"/>
<path d="M0 0 C0.33 0.99 0.66 1.98 1 3 C-3.455 5.97 -3.455 5.97 -8 9 C-8 8.01 -8 7.02 -8 6 C-6.25 4.39453125 -6.25 4.39453125 -4 2.8125 C-3.2575 2.28269531 -2.515 1.75289062 -1.75 1.20703125 C-1.1725 0.80871094 -0.595 0.41039062 0 0 Z " fill="#1F5127" transform="translate(674,717)"/>
<path d="M0 0 C2.8992226 0.46761655 3.86675182 0.86675182 6 3 C4.02 3 2.04 3 0 3 C-0.33 3.66 -0.66 4.32 -1 5 C0.32 5.66 1.64 6.32 3 7 C2.34 7.66 1.68 8.32 1 9 C-0.5625 7.8125 -0.5625 7.8125 -2 6 C-1.57894737 1.57894737 -1.57894737 1.57894737 0 0 Z " fill="#627E67" transform="translate(497,585)"/>
<path d="M0 0 C0.66 0.33 1.32 0.66 2 1 C-0.09452873 4.1417931 -0.53172427 4.47693173 -3.875 5.625 C-4.55304687 5.86476563 -5.23109375 6.10453125 -5.9296875 6.3515625 C-7.93934769 6.98100324 -9.9515569 7.5131503 -12 8 C-8.20182235 4.77730382 -4.42608146 2.25479622 0 0 Z " fill="#DEE3D7" transform="translate(651,385)"/>
<path d="M0 0 C0.66 0.33 1.32 0.66 2 1 C-0.31 3.64 -2.62 6.28 -5 9 C-5.99 8.67 -6.98 8.34 -8 8 C-5.36 5.36 -2.72 2.72 0 0 Z " fill="#284F32" transform="translate(324,330)"/>
<path d="M0 0 C3.66881155 0.70554068 6.70450534 2.27735506 10 4 C10 4.66 10 5.32 10 6 C6.27566618 4.7874262 2.62197194 3.49140021 -1 2 C-0.67 1.34 -0.34 0.68 0 0 Z " fill="#1F5328" transform="translate(616,270)"/>
<path d="M0 0 C0.66 0.99 1.32 1.98 2 3 C0.90716423 4.03295436 -0.19970579 5.05107835 -1.3125 6.0625 C-1.92738281 6.63097656 -2.54226563 7.19945312 -3.17578125 7.78515625 C-3.77777344 8.18605469 -4.37976563 8.58695313 -5 9 C-5.99 8.67 -6.98 8.34 -8 8 C-5.33333333 5.33333333 -2.66666667 2.66666667 0 0 Z " fill="#57785F" transform="translate(451,608)"/>
<path d="M0 0 C4.75 0.75 4.75 0.75 7 3 C7.125 5.625 7.125 5.625 7 8 C4.35247996 5.42215154 2.05567935 3.08351902 0 0 Z " fill="#43674E" transform="translate(484,594)"/>
<path d="M0 0 C1.31611677 0.95336021 2.62778961 1.91285774 3.9375 2.875 C4.66839844 3.40867187 5.39929688 3.94234375 6.15234375 4.4921875 C8 6 8 6 9 8 C3.5 6.53333333 3.5 6.53333333 1.125 4 C0 2 0 2 0 0 Z " fill="#44634B" transform="translate(522,562)"/>
<path d="M0 0 C-1.5830577 4.2742558 -4.50568404 6.26531794 -8 9 C-7.53918323 4.85264908 -4.48412936 0 0 0 Z " fill="#255331" transform="translate(342,314)"/>
<path d="M0 0 C1.46015291 0.28241641 2.91809793 0.57626614 4.375 0.875 C5.18710937 1.03742188 5.99921875 1.19984375 6.8359375 1.3671875 C9 2 9 2 11 4 C7.52128379 5.15957207 6.65780355 4.77456651 3.3125 3.5625 C2.50425781 3.27503906 1.69601562 2.98757813 0.86328125 2.69140625 C0.24839844 2.46324219 -0.36648438 2.23507812 -1 2 C-0.67 1.34 -0.34 0.68 0 0 Z " fill="#24512D" transform="translate(594,262)"/>
<path d="M0 0 C0.99 0.33 1.98 0.66 3 1 C2.01 1.495 2.01 1.495 1 2 C1 2.66 1 3.32 1 4 C0.34 4 -0.32 4 -1 4 C-1 4.66 -1 5.32 -1 6 C-2.32 6.33 -3.64 6.66 -5 7 C-3.70700306 4.11562221 -2.34058637 2.12780579 0 0 Z " fill="#214429" transform="translate(699,694)"/>
<path d="M0 0 C0.66 0.99 1.32 1.98 2 3 C1.5390625 5.04296875 1.5390625 5.04296875 0.625 7.1875 C0.32851563 7.90292969 0.03203125 8.61835937 -0.2734375 9.35546875 C-0.51320313 9.89816406 -0.75296875 10.44085937 -1 11 C-1.66 10.67 -2.32 10.34 -3 10 C-2.39009109 6.44219804 -1.4216319 3.3171411 0 0 Z " fill="#1E4526" transform="translate(759,599)"/>
<path d="M0 0 C3.53600465 1.91135386 5.78972846 3.62642766 8 7 C4.84859577 6.65930765 3.39218439 6.41923159 1.1875 4.0625 C0 2 0 2 0 0 Z " fill="#56765E" transform="translate(467,561)"/>
<path d="M0 0 C1.79275866 3.11910856 2.34290718 5.67682428 2.625 9.25 C2.69976562 10.14203125 2.77453125 11.0340625 2.8515625 11.953125 C2.92503906 12.96632813 2.92503906 12.96632813 3 14 C0.59647199 10.94390121 -0.61712667 8.92445167 -1 5 C-0.5625 2.1875 -0.5625 2.1875 0 0 Z " fill="#204D29" transform="translate(257,557)"/>
<path d="M0 0 C5.75 1.75 5.75 1.75 8 4 C7.67 4.99 7.34 5.98 7 7 C5.83040013 6.02433888 4.66438823 5.044375 3.5 4.0625 C2.8503125 3.51722656 2.200625 2.97195313 1.53125 2.41015625 C1.0259375 1.94480469 0.520625 1.47945312 0 1 C0 0.67 0 0.34 0 0 Z " fill="#44654D" transform="translate(579,554)"/>
<path d="M0 0 C1.33617352 0.97528737 2.6688751 1.95533319 4 2.9375 C4.7425 3.48277344 5.485 4.02804687 6.25 4.58984375 C6.8275 5.05519531 7.405 5.52054688 8 6 C8 6.33 8 6.66 8 7 C5.6875 7.25 5.6875 7.25 3 7 C1.1875 5.1875 1.1875 5.1875 0 3 C0 2.01 0 1.02 0 0 Z " fill="#52755A" transform="translate(616,529)"/>
<path d="M0 0 C0.33 0 0.66 0 1 0 C1.33 2.31 1.66 4.62 2 7 C2.33 7 2.66 7 3 7 C3 8.98 3 10.96 3 13 C2.01 13 1.02 13 0 13 C0 8.71 0 4.42 0 0 Z " fill="#385E41" transform="translate(252,519)"/>
<path d="M0 0 C-1.44390925 3.80666984 -3.34952803 5.26602582 -7 7 C-7.66 6.67 -8.32 6.34 -9 6 C-8.07213211 4.99105628 -7.13231567 3.99309093 -6.1875 3 C-5.66542969 2.443125 -5.14335937 1.88625 -4.60546875 1.3125 C-3 0 -3 0 0 0 Z " fill="#41644A" transform="translate(480,489)"/>
<path d="M0 0 C0.75 1.5625 0.75 1.5625 1 4 C-0.13084437 6.50286409 -1.52139516 8.67007722 -3 11 C-3.66 11 -4.32 11 -5 11 C-3.77472971 6.94718288 -2.30119506 3.55639236 0 0 Z " fill="#E4E6DB" transform="translate(326,453)"/>
<path d="M0 0 C0.99 0.66 1.98 1.32 3 2 C-0.85756507 4.15305957 -3.55129785 5.39253254 -8 5 C-5.44008376 2.98863724 -2.95409701 1.37154504 0 0 Z " fill="#2B5132" transform="translate(625,747)"/>
<path d="M0 0 C0.66 0 1.32 0 2 0 C0.80100302 3.0831351 -0.47700477 6.06279492 -2 9 C-2.66 9 -3.32 9 -4 9 C-3.4739075 5.21213403 -2.61896089 2.82847776 0 0 Z " fill="#224A2C" transform="translate(740,641)"/>
<path d="M0 0 C-1 3 -1 3 -3.8125 4.75 C-7.13982105 6.05483179 -7.79584277 6.02866653 -11 5 C-9.54462432 4.16151196 -8.08559627 3.32936066 -6.625 2.5 C-5.81289063 2.0359375 -5.00078125 1.571875 -4.1640625 1.09375 C-2 0 -2 0 0 0 Z " fill="#58795F" transform="translate(714,503)"/>
<path d="M0 0 C0.99 0.33 1.98 0.66 3 1 C3 1.66 3 2.32 3 3 C1.02 3.99 1.02 3.99 -1 5 C-1.66 4.34 -2.32 3.68 -3 3 C-2.01 2.01 -1.02 1.02 0 0 Z " fill="#41644A" transform="translate(456,432)"/>
<path d="M0 0 C-1.38877354 3.35620271 -2.91677965 5.07298728 -6 7 C-6.66 7 -7.32 7 -8 7 C-6.47663111 3.31852519 -4.31953005 0 0 0 Z " fill="#4D6E54" transform="translate(495,412)"/>
<path d="M0 0 C2.92393881 0.62655832 5.44829129 1.4161808 8 3 C8.33 3.99 8.66 4.98 9 6 C2.42696629 4.1011236 2.42696629 4.1011236 0 1 C0 0.67 0 0.34 0 0 Z " fill="#607C65" transform="translate(376,407)"/>
<path d="M0 0 C1.75 0.125 1.75 0.125 4 1 C6.25 4.0625 6.25 4.0625 8 7 C7.01 7 6.02 7 5 7 C0 1.53488372 0 1.53488372 0 0 Z " fill="#1B4022" transform="translate(714,344)"/>
<path d="M0 0 C2.3125 -0.25 2.3125 -0.25 5 0 C6.97610386 2.04424538 8 3.1176825 8 6 C4.63408134 4.55746343 2.48952921 2.66735273 0 0 Z " fill="#51715A" transform="translate(548,586)"/>
<path d="M0 0 C0.66 0.33 1.32 0.66 2 1 C-0.64 3.64 -3.28 6.28 -6 9 C-6.33 8.34 -6.66 7.68 -7 7 C-4.66666667 4.66666667 -2.33333333 2.33333333 0 0 Z " fill="#597A60" transform="translate(454,432)"/>
<path d="M0 0 C2.50298434 2.93828597 3.46930939 5.17902761 4 9 C3.34 9 2.68 9 2 9 C0.4375 6.1875 0.4375 6.1875 -1 3 C-0.67 2.01 -0.34 1.02 0 0 Z " fill="#204929" transform="translate(280,627)"/>
<path d="M0 0 C0.66 1.32 1.32 2.64 2 4 C1.4225 4.12375 0.845 4.2475 0.25 4.375 C-2.02335767 5.00648824 -3.9253529 5.88858191 -6 7 C-6 6.34 -6 5.68 -6 5 C-4.04072937 3.2856382 -2.04119788 1.61594832 0 0 Z " fill="#3D5F47" transform="translate(458,603)"/>
<path d="M0 0 C0.66 0 1.32 0 2 0 C0.7508258 3.45925163 -0.67527795 6.14693203 -3 9 C-3.33 8.01 -3.66 7.02 -4 6 C-2.1875 2.8125 -2.1875 2.8125 0 0 Z " fill="#547059" transform="translate(309,481)"/>
<path d="M0 0 C0.33 0.66 0.66 1.32 1 2 C0.34 2.66 -0.32 3.32 -1 4 C-1 4.99 -1 5.98 -1 7 C-2.98 7.99 -2.98 7.99 -5 9 C-3.375 2.25 -3.375 2.25 0 0 Z " fill="#55765C" transform="translate(484,474)"/>
<path d="M0 0 C0.66 0 1.32 0 2 0 C1.25 7.75 1.25 7.75 -1 10 C-1.125 3.375 -1.125 3.375 0 0 Z " fill="#1E4524" transform="translate(261,440)"/>
<path d="M0 0 C3.37462715 0.54723683 5.08235 1.0549 8 3 C8 3.66 8 4.32 8 5 C2.25 3.125 2.25 3.125 0 2 C0 1.34 0 0.68 0 0 Z " fill="#53725A" transform="translate(364,401)"/>
<path d="M0 0 C2.79872437 2.52788007 4.45773019 4.20411134 5 8 C4.01 8.495 4.01 8.495 3 9 C1.68 6.36 0.36 3.72 -1 1 C-0.67 0.67 -0.34 0.34 0 0 Z " fill="#2A5332" transform="translate(738,376)"/>
<path d="M0 0 C2 1 2 1 3.1875 3.375 C4 6 4 6 3 9 C3 8.34 3 7.68 3 7 C2.34 7 1.68 7 1 7 C0.34 5.02 -0.32 3.04 -1 1 C-0.67 0.67 -0.34 0.34 0 0 Z " fill="#244D2A" transform="translate(268,600)"/>
<path d="M0 0 C1.9375 0.75 1.9375 0.75 4 2 C4.75 4.125 4.75 4.125 5 6 C3.0625 5.25 3.0625 5.25 1 4 C0.25 1.875 0.25 1.875 0 0 Z " fill="#4C6D54" transform="translate(558,586)"/>
<path d="M0 0 C5.75 1.625 5.75 1.625 8 5 C4.75791433 4.64950425 3.38472296 4.43778819 1.1875 1.9375 C0.795625 1.298125 0.40375 0.65875 0 0 Z " fill="#4A6D52" transform="translate(572,548)"/>
<path d="M0 0 C0.66 0 1.32 0 2 0 C1.46930939 3.82097239 0.50298434 6.06171403 -2 9 C-1.125 2.25 -1.125 2.25 0 0 Z " fill="#54725B" transform="translate(327,446)"/>
<path d="M0 0 C0.99 0.33 1.98 0.66 3 1 C2.67 1.66 2.34 2.32 2 3 C-0.64860427 3.59355614 -3.29197322 3.74209269 -6 4 C-4.03617993 2.49440461 -2.21736634 1.10868317 0 0 Z " fill="#E7EAE1" transform="translate(659,381)"/>
<path d="M0 0 C0.66 0.33 1.32 0.66 2 1 C0.75023244 4.65316671 0.32901247 5.78065836 -3 8 C-3 4.42424104 -1.91159393 2.94704065 0 0 Z " fill="#1A4F21" transform="translate(294,367)"/>
<path d="M0 0 C-0.33 0.66 -0.66 1.32 -1 2 C-3.875 2.75 -3.875 2.75 -7 3 C-7.99 2.34 -8.98 1.68 -10 1 C-6.61981469 -0.04005702 -3.5219721 -0.08004482 0 0 Z " fill="#184223" transform="translate(572,767)"/>
<path d="M0 0 C1.0625 1.8125 1.0625 1.8125 2 4 C1.67 4.99 1.34 5.98 1 7 C0.34 7 -0.32 7 -1 7 C-1.33 7.99 -1.66 8.98 -2 10 C-1.125 2.25 -1.125 2.25 0 0 Z " fill="#1D4225" transform="translate(766,576)"/>
<path d="M0 0 C0.66 0.33 1.32 0.66 2 1 C1.34 2.98 0.68 4.96 0 7 C-0.99 7 -1.98 7 -3 7 C-2.01 4.69 -1.02 2.38 0 0 Z " fill="#15401D" transform="translate(282,387)"/>
<path d="" fill="#000000" transform="translate(0,0)"/>
<path d="" fill="#000000" transform="translate(0,0)"/>
<path d="" fill="#000000" transform="translate(0,0)"/>
</svg>
